inDegrees=yes
name=ik_lifting_orientations
DataType=double
version=3
OpenSimVersion=4.5-2024-01-10-34fd6af
endheader
time	pelvis_tilt	pelvis_list	pelvis_rotation	pelvis_tx	pelvis_ty	pelvis_tz	hip_flexion_r	hip_adduction_r	hip_rotation_r	knee_angle_r	knee_angle_r_beta	ankle_angle_r	subtalar_angle_r	mtp_angle_r	hip_flexion_l	hip_adduction_l	hip_rotation_l	knee_angle_l	knee_angle_l_beta	ankle_angle_l	subtalar_angle_l	mtp_angle_l	lumbar_extension	lumbar_bending	lumbar_rotation	arm_flex_r	arm_add_r	arm_rot_r	elbow_flex_r	pro_sup_r	wrist_flex_r	wrist_dev_r	arm_flex_l	arm_add_l	arm_rot_l	elbow_flex_l	pro_sup_l	wrist_flex_l	wrist_dev_l
0.02	0.0002801722242156279	-0.002869331093115898	-125.866010186797	0	0.9399999998679526	0	38.04609077999426	-10.55199928122712	0	60.80094405982479	1.061176662164831	-5.308772359759422	0	0	38.04609077999426	-10.55199928122712	0	60.80094405982479	1.061176662164831	-5.308772359759422	0	0	-0.006358065042546959	-0.001416579698338196	-0.0003163190546730882	-0.2303650587915807	-0.05431492962935576	-0.005239830663758145	0.4912312939148814	-0.1320786329295246	0	0	0	-8.249758305746491	0	90.74452347143732	-0.1320786329295246	0	0
0.03	-0.17208317819117	-0.1686851783078879	-125.4362945651148	0	0.9399999998679526	0	38.04802839709919	-10.55146701190971	0	60.80077019801119	1.06117362770374	-5.308384114659442	0	0	38.04802839709919	-10.55146701190971	0	60.80077019801119	1.06117362770374	-5.308384114659442	0	0	-0.3654597545113842	0.07927850567032471	-0.5084461948266712	-0.3174381445687314	-0.218430582908557	0.5117737673925975	0.6611745374905625	-0.1320532564881875	0	0	0	-8.250717640017697	0	90.74438028675827	-0.1320532564881875	0	0
0.04	-0.1395228491047218	-0.4267275501731804	-124.6881873057477	0	0.9399999998679526	0	38.0495690385307	-10.55104601398936	0	60.80063142471992	1.061171205652893	-5.308077397874801	0	0	38.0495690385307	-10.55104601398936	0	60.80063142471992	1.061171205652893	-5.308077397874801	0	0	-0.8865356362153735	0.01277360129041283	-1.458657552497345	-0.2983820397718179	-0.4530436709629849	1.203768362462036	0.9315783385792287	-0.13203304701983	0	0	0	-8.251482584462982	0	90.74426625640486	-0.13203304701983	0	0
0.05	0.2578296072828036	-0.7414143372780125	-123.5004658837863	0	0.9399999998679526	0	38.05240457329158	-10.55026888646553	0	60.80037678114714	1.061166761284129	-5.307511002600022	0	0	38.05240457329158	-10.55026888646553	0	60.80037678114714	1.061166761284129	-5.307511002600022	0	0	-1.44309221903783	-0.3181860290207474	-2.994039555363439	-0.1980081469314395	-0.7814594055567695	2.064062421520549	1.312574148718231	-0.1319958933544396	0	0	0	-8.252887596421189	0	90.7440566196545	-0.1319958933544396	0	0
0.06	1.1429695105412	-1.317025617592374	-121.2631506930092	0	0.9399999998679526	0	38.05428639193408	-10.54975795246708	0	60.80020660463047	1.061163791143604	-5.307139388412609	0	0	38.05428639193408	-10.54975795246708	0	60.80020660463047	1.061163791143604	-5.307139388412609	0	0	-2.270151094547287	-1.029109028319488	-5.781588288443031	0.1993117577428924	-1.2553855389705	3.17324055165258	1.768090675635217	-0.1319711655182902	0	0	0	-8.253824789177681	0	90.74391709485074	-0.1319711655182902	0	0
0.07000000000000001	2.050898484220096	-1.847794839495529	-119.0012391896828	0	0.9399999998679526	0	38.06124513818682	-10.54786067171536	0	60.7995816238934	1.061152883171981	-5.305759754288828	0	0	38.06124513818682	-10.54786067171536	0	60.7995816238934	1.061152883171981	-5.305759754288828	0	0	-3.270331971859042	-1.634049707945693	-8.728934718526151	0.7880269615543563	-1.764480410382442	4.504968966934229	2.207322920259231	-0.1318799461338105	0	0	0	-8.257274691322158	0	90.7434023964327	-0.1318799461338105	0	0
0.08	3.614475469566198	-2.393511224343547	-116.1135180179139	0	0.9399999998679526	0	38.13144385990877	-10.53482586548357	0	60.79151414587772	1.061012079118275	-5.297095626746358	0	0	38.13144385990877	-10.53482586548357	0	60.79151414587772	1.061012079118275	-5.297095626746358	0	0	-2.06594511617453	-7.15671481770423	-12.41511212329742	-1.397036568448608	1.723766950228606	6.11530981508801	2.526586150128817	-0.1308589126404268	0	0	0	-8.298947455394675	0	90.7376414988926	-0.1308589126404268	0	0
0.09	5.099642535504455	-2.826843022924239	-113.4536551609158	0	0.9399999998679526	0	38.13380017758473	-10.5341957559619	0	60.79130128713806	1.061008364032426	-5.29663995253499	0	0	38.13380017758473	-10.5341957559619	0	60.79130128713806	1.061008364032426	-5.29663995253499	0	0	-1.974481808483092	-11.33854603661426	-15.92111986091264	-2.686663347471785	4.090145747051616	7.906846174513449	2.83224972533985	-0.130827876160205	0	0	0	-8.300125235589816	0	90.73746637829016	-0.130827876160205	0	0
0.1	6.516763113778792	-3.065850732619936	-111.2961192070016	0	0.9399999998679526	0	38.13702867805489	-10.53333047299347	0	60.79101034906962	1.061003286205212	-5.296014054683452	0	0	38.13702867805489	-10.53333047299347	0	60.79101034906962	1.061003286205212	-5.296014054683452	0	0	-2.277510349625028	-14.89443466363389	-19.01859762068097	-3.530145781515496	6.033809306824262	9.639975054522701	3.046036999400651	-0.1307853891605091	0	0	0	-8.30173637789599	0	90.73722664906929	-0.1307853891605091	0	0
0.11	7.294610286114115	-3.247530553449046	-109.8504441056705	0	0.9399999998679526	0	38.14027636319961	-10.53246005466268	0	60.79071789232554	1.060998181872108	-5.29538459156813	0	0	38.14027636319961	-10.53246005466268	0	60.79071789232554	1.060998181872108	-5.29538459156813	0	0	-3.208097696080928	-17.07917877128682	-21.63837319405507	-3.852194707410853	7.37447293428243	11.43785905088258	3.33675138391125	-0.1307426575781569	0	0	0	-8.303356507353699	0	90.73698553979904	-0.1307426575781569	0	0
0.12	7.369749873717594	-3.600077176858182	-108.4573149274858	0	0.9399999998679526	0	38.14256702711455	-10.5318507232629	0	60.79051049859581	1.060994562168677	-5.294944695495085	0	0	38.14256702711455	-10.5318507232629	0	60.79051049859581	1.060994562168677	-5.294944695495085	0	0	-4.800705863366102	-17.92466650388691	-24.2609716099727	-3.643931457154118	8.205313135223799	13.00325525037499	3.420171536073818	-0.1307124502194164	0	0	0	-8.30450378919498	0	90.73681509751742	-0.1307124502194164	0	0
